<?xml version="1.0" encoding="UTF-8"?>
<svg width="136px" height="132px" viewBox="0 0 136 132" version="1.1" xmlns="http://www.w3.org/2000/svg" xmlns:xlink="http://www.w3.org/1999/xlink">
    <title>Phi</title>
    <defs>
        <path d="M90.4,6.4 C77.6,7.2 76.2,8.4 76.2,15.8 C100.8,16.6 135.4,28 135.4,64.2 C135.4,101 100,114 76.2,114.4 C76.2,123.4 77.8,124.4 90.4,125.2 L90.4,131.6 L45,131.6 L45,125.2 C57.6,124.4 59.2,123.4 59.2,114.4 C36,114 0,102 0,65.6 C0,29.6 34.8,16.8 59.2,15.8 C59.2,8.4 57.6,7.2 46.2,6.4 L46.2,0 L90.4,0 L90.4,6.4 Z M59.2,23.2 C42.2,24 19,33.8 19,64 C19,95 41.8,105.8 59.2,107 L59.2,23.2 Z M76.2,107 C93.2,105.8 116.6,96 116.6,65 C116.6,33.8 93.2,24 76.2,23.2 L76.2,107 L76.2,107 Z" id="path-1"></path>
    </defs>
    <g id="Page-1" stroke="none" stroke-width="1" fill="none" fill-rule="evenodd">
        <g id="Phi">
            <path d="M90.4,6.4 C77.6,7.2 76.2,8.4 76.2,15.8 C100.8,16.6 135.4,28 135.4,64.2 C135.4,101 100,114 76.2,114.4 C76.2,123.4 77.8,124.4 90.4,125.2 L90.4,131.6 L45,131.6 L45,125.2 C57.6,124.4 59.2,123.4 59.2,114.4 C36,114 0,102 0,65.6 C0,29.6 34.8,16.8 59.2,15.8 C59.2,8.4 57.6,7.2 46.2,6.4 L46.2,0 L90.4,0 L90.4,6.4 Z M59.2,23.2 C42.2,24 19,33.8 19,64 C19,95 41.8,105.8 59.2,107 L59.2,23.2 Z M116.6,65 C116.6,33.8 93.2,24 76.2,23.2 L76.2,107 C93.2,105.8 116.6,96 116.6,65 Z" id="Shape" fill="#6B85DC" fill-rule="nonzero"></path>
            <g id="Rectangle">
                <mask id="mask-2" fill="white">
                    <use xlink:href="#path-1"></use>
                </mask>
                <g id="Mask" fill-rule="nonzero"></g>
                <rect fill="#3C3C3D" mask="url(#mask-2)" x="68" y="0" width="68" height="132"></rect>
            </g>
        </g>
    </g>
</svg>